<svg width="32" height="32" viewBox="0 0 256 256">
    <g fill="none" stroke="currentColor" stroke-linecap="round" stroke-linejoin="round" stroke-width="16"><path d="M16.057 240h223.886M16.057 240c0-47.976 31.984-64.081 31.984-64.081 15.991-9.233 31.983 0 47.975-15.992M96.016 159.927s15.992 15.992 31.984 15.992M239.943 240c0-47.976-31.984-64.081-31.984-64.081-15.991-9.233-31.983 0-47.975-15.992M159.984 159.927S143.992 175.919 128 175.919M128 16c31.984 0 47.976 15.992 47.976 63.967 0 39.98-31.984 63.968-47.976 63.968M128 16c-31.984 0-47.976 15.992-47.976 63.967 0 39.98 31.984 63.968 47.976 63.968M159.984 159.927l-7.413-27.663M96.016 159.927l7.413-27.663"/></g>
</svg>